<svg width="334" height="100" fill="none" xmlns="http://www.w3.org/2000/svg"><path d="M105.793 47.9119V39.5696H107.175C107.646 39.2315 108.077 38.7543 108.468 38.1378C108.859 37.5147 109.194 36.6562 109.472 35.5625C109.751 34.4621 109.949 33.0237 110.069 31.2472L110.645 22.6364H124.118V39.5696H126.346V47.892H122.209V43H109.93V47.9119H105.793ZM112.147 39.5696H119.982V26.1861H114.523L114.205 31.2472C114.119 32.5928 113.976 33.786 113.778 34.8267C113.585 35.8674 113.35 36.7789 113.072 37.5611C112.8 38.3366 112.492 39.0062 112.147 39.5696ZM128.884 43V27.7273H133.119V43H128.884ZM131.012 25.7585C130.382 25.7585 129.842 25.5497 129.391 25.1321C128.947 24.7079 128.725 24.2008 128.725 23.6108C128.725 23.0275 128.947 22.527 129.391 22.1094C129.842 21.6851 130.382 21.473 131.012 21.473C131.641 21.473 132.178 21.6851 132.622 22.1094C133.073 22.527 133.298 23.0275 133.298 23.6108C133.298 24.2008 133.073 24.7079 132.622 25.1321C132.178 25.5497 131.641 25.7585 131.012 25.7585ZM140.868 43.2884C139.893 43.2884 139.025 43.1193 138.263 42.7812C137.5 42.4366 136.897 41.9295 136.453 41.2599C136.015 40.5838 135.797 39.742 135.797 38.7344C135.797 37.8859 135.952 37.1733 136.264 36.5966C136.576 36.0199 137 35.5559 137.537 35.2045C138.074 34.8532 138.684 34.5881 139.366 34.4091C140.056 34.2301 140.778 34.1042 141.534 34.0312C142.422 33.9384 143.138 33.8523 143.682 33.7727C144.225 33.6866 144.62 33.5606 144.865 33.3949C145.11 33.2292 145.233 32.9839 145.233 32.6591V32.5994C145.233 31.9697 145.034 31.4825 144.636 31.1378C144.245 30.7931 143.688 30.6207 142.966 30.6207C142.203 30.6207 141.597 30.7898 141.146 31.1278C140.695 31.4593 140.397 31.8769 140.251 32.3807L136.334 32.0625C136.532 31.1345 136.924 30.3324 137.507 29.6562C138.09 28.9735 138.843 28.4498 139.764 28.0852C140.692 27.714 141.766 27.5284 142.986 27.5284C143.834 27.5284 144.646 27.6278 145.422 27.8267C146.204 28.0256 146.897 28.3338 147.5 28.7514C148.11 29.169 148.59 29.706 148.942 30.3622C149.293 31.0118 149.469 31.7907 149.469 32.6989V43H145.452V40.8821H145.332C145.087 41.3594 144.759 41.7803 144.348 42.1449C143.937 42.5028 143.443 42.7846 142.866 42.9901C142.29 43.1889 141.623 43.2884 140.868 43.2884ZM142.081 40.3651C142.704 40.3651 143.254 40.2424 143.731 39.9972C144.209 39.7453 144.583 39.4072 144.855 38.983C145.127 38.5587 145.263 38.0781 145.263 37.5412V35.9205C145.13 36.0066 144.948 36.0862 144.716 36.1591C144.49 36.2254 144.235 36.2884 143.95 36.348C143.665 36.401 143.38 36.4508 143.095 36.4972C142.81 36.5369 142.551 36.5734 142.319 36.6065C141.822 36.6795 141.388 36.7955 141.017 36.9545C140.646 37.1136 140.357 37.3291 140.152 37.6009C139.946 37.866 139.844 38.1974 139.844 38.5952C139.844 39.1719 140.052 39.6127 140.47 39.9176C140.894 40.2159 141.431 40.3651 142.081 40.3651ZM163.384 33.6733V37.0043H155.41V33.6733H163.384ZM156.802 27.7273V43H152.755V27.7273H156.802ZM166.039 27.7273V43H162.022V27.7273H166.039ZM173.68 43.2884C172.706 43.2884 171.837 43.1193 171.075 42.7812C170.313 42.4366 169.71 41.9295 169.265 41.2599C168.828 40.5838 168.609 39.742 168.609 38.7344C168.609 37.8859 168.765 37.1733 169.077 36.5966C169.388 36.0199 169.812 35.5559 170.349 35.2045C170.886 34.8532 171.496 34.5881 172.179 34.4091C172.868 34.2301 173.591 34.1042 174.346 34.0312C175.235 33.9384 175.951 33.8523 176.494 33.7727C177.038 33.6866 177.432 33.5606 177.677 33.3949C177.923 33.2292 178.045 32.9839 178.045 32.6591V32.5994C178.045 31.9697 177.846 31.4825 177.449 31.1378C177.058 30.7931 176.501 30.6207 175.778 30.6207C175.016 30.6207 174.409 30.7898 173.959 31.1278C173.508 31.4593 173.21 31.8769 173.064 32.3807L169.146 32.0625C169.345 31.1345 169.736 30.3324 170.319 29.6562C170.903 28.9735 171.655 28.4498 172.577 28.0852C173.505 27.714 174.578 27.5284 175.798 27.5284C176.647 27.5284 177.459 27.6278 178.234 27.8267C179.016 28.0256 179.709 28.3338 180.312 28.7514C180.922 29.169 181.403 29.706 181.754 30.3622C182.105 31.0118 182.281 31.7907 182.281 32.6989V43H178.264V40.8821H178.145C177.899 41.3594 177.571 41.7803 177.16 42.1449C176.749 42.5028 176.256 42.7846 175.679 42.9901C175.102 43.1889 174.436 43.2884 173.68 43.2884ZM174.893 40.3651C175.516 40.3651 176.067 40.2424 176.544 39.9972C177.021 39.7453 177.396 39.4072 177.667 38.983C177.939 38.5587 178.075 38.0781 178.075 37.5412V35.9205C177.943 36.0066 177.76 36.0862 177.528 36.1591C177.303 36.2254 177.048 36.2884 176.763 36.348C176.478 36.401 176.193 36.4508 175.907 36.4972C175.622 36.5369 175.364 36.5734 175.132 36.6065C174.635 36.6795 174.201 36.7955 173.829 36.9545C173.458 37.1136 173.17 37.3291 172.964 37.6009C172.759 37.866 172.656 38.1974 172.656 38.5952C172.656 39.1719 172.865 39.6127 173.282 39.9176C173.707 40.2159 174.244 40.3651 174.893 40.3651ZM191.024 43V39.5398L191.6 39.4901C192.343 39.4304 192.943 39.1487 193.4 38.6449C193.857 38.1345 194.199 37.3224 194.424 36.2088C194.656 35.0885 194.805 33.5838 194.872 31.6946L195.21 22.6364H209.031V43H204.845V26.0866H199.207L198.889 33.1761C198.783 35.4564 198.511 37.3191 198.073 38.7642C197.642 40.2093 196.953 41.2765 196.005 41.9659C195.064 42.6553 193.775 43 192.137 43H191.024ZM216.548 37.4119L222.046 27.7273H226.222V43H222.186V33.2855L216.707 43H212.501V27.7273H216.548V37.4119ZM240.247 33.6733V37.0043H232.273V33.6733H240.247ZM233.665 27.7273V43H229.618V27.7273H233.665ZM242.902 27.7273V43H238.885V27.7273H242.902ZM246.188 43V27.7273H252.701C254.584 27.7273 256.072 28.0852 257.166 28.8011C258.259 29.517 258.806 30.5346 258.806 31.8537C258.806 32.6823 258.498 33.3717 257.882 33.9219C257.265 34.4721 256.41 34.8433 255.316 35.0355C256.231 35.1018 257.01 35.3106 257.653 35.6619C258.302 36.0066 258.796 36.4541 259.134 37.0043C259.479 37.5545 259.651 38.1643 259.651 38.8338C259.651 39.7022 259.419 40.4479 258.955 41.071C258.498 41.6941 257.825 42.1714 256.937 42.5028C256.055 42.8343 254.978 43 253.705 43H246.188ZM250.136 39.8281H253.705C254.295 39.8281 254.756 39.6889 255.088 39.4105C255.426 39.1255 255.595 38.7377 255.595 38.2472C255.595 37.7036 255.426 37.276 255.088 36.9645C254.756 36.6529 254.295 36.4972 253.705 36.4972H250.136V39.8281ZM250.136 34.0114H252.791C253.215 34.0114 253.576 33.9517 253.874 33.8324C254.179 33.7064 254.411 33.5275 254.57 33.2955C254.736 33.0634 254.819 32.7884 254.819 32.4702C254.819 31.9995 254.63 31.6316 254.252 31.3665C253.874 31.1013 253.357 30.9688 252.701 30.9688H250.136V34.0114ZM266.676 43.2884C265.702 43.2884 264.834 43.1193 264.071 42.7812C263.309 42.4366 262.706 41.9295 262.262 41.2599C261.824 40.5838 261.605 39.742 261.605 38.7344C261.605 37.8859 261.761 37.1733 262.073 36.5966C262.384 36.0199 262.808 35.5559 263.345 35.2045C263.882 34.8532 264.492 34.5881 265.175 34.4091C265.864 34.2301 266.587 34.1042 267.343 34.0312C268.231 33.9384 268.947 33.8523 269.49 33.7727C270.034 33.6866 270.428 33.5606 270.673 33.3949C270.919 33.2292 271.041 32.9839 271.041 32.6591V32.5994C271.041 31.9697 270.843 31.4825 270.445 31.1378C270.054 30.7931 269.497 30.6207 268.774 30.6207C268.012 30.6207 267.405 30.7898 266.955 31.1278C266.504 31.4593 266.206 31.8769 266.06 32.3807L262.142 32.0625C262.341 31.1345 262.732 30.3324 263.316 29.6562C263.899 28.9735 264.651 28.4498 265.573 28.0852C266.501 27.714 267.575 27.5284 268.794 27.5284C269.643 27.5284 270.455 27.6278 271.23 27.8267C272.012 28.0256 272.705 28.3338 273.308 28.7514C273.918 29.169 274.399 29.706 274.75 30.3622C275.102 31.0118 275.277 31.7907 275.277 32.6989V43H271.26V40.8821H271.141C270.896 41.3594 270.567 41.7803 270.156 42.1449C269.745 42.5028 269.252 42.7846 268.675 42.9901C268.098 43.1889 267.432 43.2884 266.676 43.2884ZM267.889 40.3651C268.512 40.3651 269.063 40.2424 269.54 39.9972C270.017 39.7453 270.392 39.4072 270.664 38.983C270.935 38.5587 271.071 38.0781 271.071 37.5412V35.9205C270.939 36.0066 270.756 36.0862 270.524 36.1591C270.299 36.2254 270.044 36.2884 269.759 36.348C269.474 36.401 269.189 36.4508 268.904 36.4972C268.619 36.5369 268.36 36.5734 268.128 36.6065C267.631 36.6795 267.197 36.7955 266.825 36.9545C266.454 37.1136 266.166 37.3291 265.96 37.6009C265.755 37.866 265.652 38.1974 265.652 38.5952C265.652 39.1719 265.861 39.6127 266.279 39.9176C266.703 40.2159 267.24 40.3651 267.889 40.3651Z" fill="black"/><path d="M116.761 66.9091V80H115.175V68.3153H108.579V80H106.994V66.9091H116.761ZM123.742 80.2045C122.822 80.2045 122.029 79.9872 121.365 79.5526C120.7 79.1179 120.188 78.5192 119.83 77.7564C119.472 76.9936 119.294 76.1222 119.294 75.142C119.294 74.1449 119.477 73.2649 119.843 72.5021C120.214 71.7351 120.73 71.1364 121.39 70.706C122.055 70.2713 122.83 70.054 123.717 70.054C124.407 70.054 125.029 70.1818 125.583 70.4375C126.137 70.6932 126.591 71.0511 126.945 71.5114C127.298 71.9716 127.518 72.5085 127.603 73.1222H126.095C125.98 72.6747 125.724 72.2784 125.328 71.9332C124.936 71.5838 124.407 71.4091 123.742 71.4091C123.154 71.4091 122.639 71.5625 122.195 71.8693C121.757 72.1719 121.414 72.6001 121.166 73.1541C120.923 73.7038 120.802 74.3494 120.802 75.0909C120.802 75.8494 120.921 76.5099 121.16 77.0724C121.403 77.6349 121.744 78.0717 122.183 78.3828C122.626 78.6939 123.146 78.8494 123.742 78.8494C124.134 78.8494 124.49 78.7812 124.81 78.6449C125.129 78.5085 125.4 78.3125 125.622 78.0568C125.843 77.8011 126.001 77.4943 126.095 77.1364H127.603C127.518 77.7159 127.307 78.2379 126.97 78.7024C126.638 79.1626 126.197 79.5291 125.647 79.8018C125.102 80.0703 124.467 80.2045 123.742 80.2045ZM131.317 77.7756L136.047 70.1818H137.786V80H136.277V72.4062L131.573 80H129.808V70.1818H131.317V77.7756ZM141.674 70.1818L144.026 74.196L146.378 70.1818H148.117L144.946 75.0909L148.117 80H146.378L144.026 76.1903L141.674 80H139.935L143.054 75.0909L139.935 70.1818H141.674ZM150.269 80V70.1818H151.778V80H150.269ZM151.036 68.5455C150.742 68.5455 150.489 68.4453 150.276 68.245C150.067 68.0447 149.963 67.804 149.963 67.5227C149.963 67.2415 150.067 67.0007 150.276 66.8004C150.489 66.6001 150.742 66.5 151.036 66.5C151.33 66.5 151.582 66.6001 151.791 66.8004C152.004 67.0007 152.11 67.2415 152.11 67.5227C152.11 67.804 152.004 68.0447 151.791 68.245C151.582 68.4453 151.33 68.5455 151.036 68.5455ZM157.43 80.2301C156.808 80.2301 156.243 80.1129 155.736 79.8786C155.229 79.6399 154.826 79.2969 154.528 78.8494C154.23 78.3977 154.081 77.8523 154.081 77.2131C154.081 76.6506 154.191 76.1946 154.413 75.8452C154.635 75.4915 154.931 75.2145 155.301 75.0142C155.672 74.8139 156.081 74.6648 156.529 74.5668C156.98 74.4645 157.434 74.3835 157.89 74.3239C158.487 74.2472 158.971 74.1896 159.341 74.1513C159.716 74.1087 159.989 74.0384 160.159 73.9403C160.334 73.8423 160.422 73.6719 160.422 73.429V73.3778C160.422 72.7472 160.249 72.2571 159.904 71.9077C159.563 71.5582 159.045 71.3835 158.35 71.3835C157.63 71.3835 157.066 71.5412 156.657 71.8565C156.248 72.1719 155.96 72.5085 155.794 72.8665L154.362 72.3551C154.618 71.7585 154.958 71.294 155.385 70.9616C155.815 70.625 156.284 70.3906 156.791 70.2585C157.302 70.1222 157.805 70.054 158.299 70.054C158.615 70.054 158.977 70.0923 159.386 70.169C159.799 70.2415 160.198 70.3928 160.581 70.6229C160.969 70.853 161.291 71.2003 161.547 71.6648C161.802 72.1293 161.93 72.7514 161.93 73.5312V80H160.422V78.6705H160.345C160.243 78.8835 160.072 79.1115 159.833 79.3544C159.595 79.5973 159.277 79.804 158.881 79.9744C158.485 80.1449 158.001 80.2301 157.43 80.2301ZM157.66 78.875C158.257 78.875 158.76 78.7578 159.169 78.5234C159.582 78.2891 159.893 77.9865 160.102 77.6158C160.315 77.245 160.422 76.8551 160.422 76.446V75.0653C160.358 75.142 160.217 75.2124 160 75.2763C159.787 75.3359 159.539 75.3892 159.258 75.4361C158.981 75.4787 158.711 75.517 158.446 75.5511C158.186 75.581 157.975 75.6065 157.814 75.6278C157.422 75.679 157.055 75.7621 156.714 75.8771C156.377 75.9879 156.105 76.1562 155.896 76.3821C155.691 76.6037 155.589 76.9062 155.589 77.2898C155.589 77.8139 155.783 78.2102 156.171 78.4787C156.563 78.7429 157.059 78.875 157.66 78.875ZM163.347 71.5881V70.1818H171.325V71.5881H168.103V80H166.595V71.5881H163.347ZM173.525 83.6818V70.1818H174.983V71.7415H175.162C175.272 71.571 175.426 71.3537 175.622 71.0895C175.822 70.821 176.108 70.5824 176.478 70.3736C176.853 70.1605 177.36 70.054 178 70.054C178.826 70.054 179.555 70.2607 180.186 70.674C180.816 71.0874 181.309 71.6733 181.662 72.4318C182.016 73.1903 182.193 74.0852 182.193 75.1165C182.193 76.1562 182.016 77.0575 181.662 77.8203C181.309 78.5788 180.819 79.1669 180.192 79.5845C179.566 79.9979 178.843 80.2045 178.025 80.2045C177.395 80.2045 176.89 80.1001 176.51 79.8913C176.131 79.6783 175.839 79.4375 175.635 79.169C175.43 78.8963 175.272 78.6705 175.162 78.4915H175.034V83.6818H173.525ZM175.008 75.0909C175.008 75.8324 175.117 76.4865 175.334 77.0533C175.551 77.6158 175.869 78.0568 176.287 78.3764C176.704 78.6918 177.216 78.8494 177.821 78.8494C178.451 78.8494 178.978 78.6832 179.4 78.3509C179.826 78.0142 180.145 77.5625 180.358 76.9957C180.576 76.4247 180.684 75.7898 180.684 75.0909C180.684 74.4006 180.578 73.7784 180.365 73.2244C180.156 72.6662 179.838 72.2251 179.412 71.9013C178.99 71.5732 178.46 71.4091 177.821 71.4091C177.207 71.4091 176.691 71.5646 176.274 71.8757C175.856 72.1825 175.541 72.6129 175.328 73.1669C175.115 73.7166 175.008 74.358 175.008 75.0909ZM191.755 62.6903V84.2188H190.477V62.6903H191.755ZM210.505 66.9091V80H208.92V68.3153H202.323V80H200.738V66.9091H210.505ZM217.487 80.2045C216.566 80.2045 215.773 79.9872 215.109 79.5526C214.444 79.1179 213.933 78.5192 213.575 77.7564C213.217 76.9936 213.038 76.1222 213.038 75.142C213.038 74.1449 213.221 73.2649 213.587 72.5021C213.958 71.7351 214.474 71.1364 215.134 70.706C215.799 70.2713 216.575 70.054 217.461 70.054C218.151 70.054 218.773 70.1818 219.327 70.4375C219.881 70.6932 220.335 71.0511 220.689 71.5114C221.043 71.9716 221.262 72.5085 221.347 73.1222H219.839C219.724 72.6747 219.468 72.2784 219.072 71.9332C218.68 71.5838 218.151 71.4091 217.487 71.4091C216.898 71.4091 216.383 71.5625 215.94 71.8693C215.501 72.1719 215.158 72.6001 214.911 73.1541C214.668 73.7038 214.546 74.3494 214.546 75.0909C214.546 75.8494 214.665 76.5099 214.904 77.0724C215.147 77.6349 215.488 78.0717 215.927 78.3828C216.37 78.6939 216.89 78.8494 217.487 78.8494C217.879 78.8494 218.234 78.7812 218.554 78.6449C218.874 78.5085 219.144 78.3125 219.366 78.0568C219.587 77.8011 219.745 77.4943 219.839 77.1364H221.347C221.262 77.7159 221.051 78.2379 220.714 78.7024C220.382 79.1626 219.941 79.5291 219.391 79.8018C218.846 80.0703 218.211 80.2045 217.487 80.2045ZM225.061 77.7756L229.791 70.1818H231.53V80H230.021V72.4062L225.317 80H223.553V70.1818H225.061V77.7756ZM235.418 70.1818L237.77 74.196L240.122 70.1818H241.861L238.691 75.0909L241.861 80H240.122L237.77 76.1903L235.418 80H233.679L236.798 75.0909L233.679 70.1818H235.418ZM247.598 80.2045C246.711 80.2045 245.934 79.9936 245.265 79.5717C244.6 79.1499 244.08 78.5597 243.705 77.8011C243.334 77.0426 243.149 76.1562 243.149 75.142C243.149 74.1193 243.334 73.2266 243.705 72.4638C244.08 71.701 244.6 71.1087 245.265 70.6868C245.934 70.2649 246.711 70.054 247.598 70.054C248.484 70.054 249.26 70.2649 249.925 70.6868C250.594 71.1087 251.113 71.701 251.484 72.4638C251.859 73.2266 252.047 74.1193 252.047 75.142C252.047 76.1562 251.859 77.0426 251.484 77.8011C251.113 78.5597 250.594 79.1499 249.925 79.5717C249.26 79.9936 248.484 80.2045 247.598 80.2045ZM247.598 78.8494C248.271 78.8494 248.825 78.6768 249.26 78.3317C249.694 77.9865 250.016 77.5327 250.225 76.9702C250.434 76.4077 250.538 75.7983 250.538 75.142C250.538 74.4858 250.434 73.8743 250.225 73.3075C250.016 72.7408 249.694 72.2827 249.26 71.9332C248.825 71.5838 248.271 71.4091 247.598 71.4091C246.925 71.4091 246.371 71.5838 245.936 71.9332C245.501 72.2827 245.18 72.7408 244.971 73.3075C244.762 73.8743 244.657 74.4858 244.657 75.142C244.657 75.7983 244.762 76.4077 244.971 76.9702C245.18 77.5327 245.501 77.9865 245.936 78.3317C246.371 78.6768 246.925 78.8494 247.598 78.8494ZM253.066 71.5881V70.1818H261.044V71.5881H257.822V80H256.313V71.5881H253.066ZM266.851 80.2045C265.905 80.2045 265.089 79.9957 264.403 79.5781C263.721 79.1562 263.194 78.5682 262.824 77.8139C262.457 77.0554 262.274 76.1733 262.274 75.1676C262.274 74.1619 262.457 73.2756 262.824 72.5085C263.194 71.7372 263.71 71.1364 264.371 70.706C265.035 70.2713 265.811 70.054 266.697 70.054C267.209 70.054 267.714 70.1392 268.212 70.3097C268.711 70.4801 269.165 70.7571 269.574 71.1406C269.983 71.5199 270.309 72.0227 270.552 72.6491C270.795 73.2756 270.916 74.0469 270.916 74.9631V75.6023H263.348V74.2983H269.382C269.382 73.7443 269.271 73.25 269.05 72.8153C268.832 72.3807 268.521 72.0376 268.116 71.7862C267.716 71.5348 267.243 71.4091 266.697 71.4091C266.096 71.4091 265.577 71.5582 265.138 71.8565C264.703 72.1506 264.368 72.5341 264.134 73.0071C263.9 73.4801 263.782 73.9872 263.782 74.5284V75.3977C263.782 76.1392 263.91 76.7678 264.166 77.2834C264.426 77.7947 264.786 78.1847 265.246 78.4531C265.706 78.7173 266.241 78.8494 266.851 78.8494C267.247 78.8494 267.605 78.794 267.925 78.6832C268.248 78.5682 268.528 78.3977 268.762 78.1719C268.996 77.9418 269.177 77.6562 269.305 77.3153L270.763 77.7244C270.609 78.2188 270.351 78.6534 269.989 79.0284C269.627 79.3991 269.18 79.6889 268.647 79.8977C268.114 80.1023 267.515 80.2045 266.851 80.2045ZM273.211 83.6818V70.1818H274.668V71.7415H274.847C274.958 71.571 275.111 71.3537 275.307 71.0895C275.508 70.821 275.793 70.5824 276.164 70.3736C276.539 70.1605 277.046 70.054 277.685 70.054C278.512 70.054 279.241 70.2607 279.871 70.674C280.502 71.0874 280.994 71.6733 281.348 72.4318C281.702 73.1903 281.878 74.0852 281.878 75.1165C281.878 76.1562 281.702 77.0575 281.348 77.8203C280.994 78.5788 280.504 79.1669 279.878 79.5845C279.251 79.9979 278.529 80.2045 277.711 80.2045C277.08 80.2045 276.575 80.1001 276.196 79.8913C275.817 79.6783 275.525 79.4375 275.32 79.169C275.116 78.8963 274.958 78.6705 274.847 78.4915H274.719V83.6818H273.211ZM274.694 75.0909C274.694 75.8324 274.802 76.4865 275.02 77.0533C275.237 77.6158 275.555 78.0568 275.972 78.3764C276.39 78.6918 276.901 78.8494 277.506 78.8494C278.137 78.8494 278.663 78.6832 279.085 78.3509C279.511 78.0142 279.831 77.5625 280.044 76.9957C280.261 76.4247 280.37 75.7898 280.37 75.0909C280.37 74.4006 280.263 73.7784 280.05 73.2244C279.841 72.6662 279.524 72.2251 279.098 71.9013C278.676 71.5732 278.145 71.4091 277.506 71.4091C276.893 71.4091 276.377 71.5646 275.959 71.8757C275.542 72.1825 275.226 72.6129 275.013 73.1669C274.8 73.7166 274.694 74.358 274.694 75.0909ZM287.069 80.2301C286.447 80.2301 285.882 80.1129 285.375 79.8786C284.868 79.6399 284.465 79.2969 284.167 78.8494C283.868 78.3977 283.719 77.8523 283.719 77.2131C283.719 76.6506 283.83 76.1946 284.052 75.8452C284.273 75.4915 284.569 75.2145 284.94 75.0142C285.311 74.8139 285.72 74.6648 286.167 74.5668C286.619 74.4645 287.073 74.3835 287.529 74.3239C288.126 74.2472 288.609 74.1896 288.98 74.1513C289.355 74.1087 289.628 74.0384 289.798 73.9403C289.973 73.8423 290.06 73.6719 290.06 73.429V73.3778C290.06 72.7472 289.888 72.2571 289.542 71.9077C289.202 71.5582 288.684 71.3835 287.989 71.3835C287.269 71.3835 286.704 71.5412 286.295 71.8565C285.886 72.1719 285.599 72.5085 285.432 72.8665L284.001 72.3551C284.256 71.7585 284.597 71.294 285.023 70.9616C285.454 70.625 285.922 70.3906 286.43 70.2585C286.941 70.1222 287.444 70.054 287.938 70.054C288.253 70.054 288.616 70.0923 289.025 70.169C289.438 70.2415 289.836 70.3928 290.22 70.6229C290.608 70.853 290.93 71.2003 291.185 71.6648C291.441 72.1293 291.569 72.7514 291.569 73.5312V80H290.06V78.6705H289.983C289.881 78.8835 289.711 79.1115 289.472 79.3544C289.233 79.5973 288.916 79.804 288.52 79.9744C288.123 80.1449 287.64 80.2301 287.069 80.2301ZM287.299 78.875C287.895 78.875 288.398 78.7578 288.807 78.5234C289.221 78.2891 289.532 77.9865 289.741 77.6158C289.954 77.245 290.06 76.8551 290.06 76.446V75.0653C289.996 75.142 289.856 75.2124 289.638 75.2763C289.425 75.3359 289.178 75.3892 288.897 75.4361C288.62 75.4787 288.349 75.517 288.085 75.5511C287.825 75.581 287.614 75.6065 287.452 75.6278C287.06 75.679 286.694 75.7621 286.353 75.8771C286.016 75.9879 285.743 76.1562 285.535 76.3821C285.33 76.6037 285.228 76.9062 285.228 77.2898C285.228 77.8139 285.422 78.2102 285.809 78.4787C286.202 78.7429 286.698 78.875 287.299 78.875ZM294.322 80V70.1818H302.044V80H300.535V71.5881H295.831V80H294.322ZM308.915 80.2045C307.969 80.2045 307.153 79.9957 306.467 79.5781C305.785 79.1562 305.259 78.5682 304.888 77.8139C304.522 77.0554 304.338 76.1733 304.338 75.1676C304.338 74.1619 304.522 73.2756 304.888 72.5085C305.259 71.7372 305.775 71.1364 306.435 70.706C307.1 70.2713 307.875 70.054 308.762 70.054C309.273 70.054 309.778 70.1392 310.277 70.3097C310.775 70.4801 311.229 70.7571 311.638 71.1406C312.047 71.5199 312.373 72.0227 312.616 72.6491C312.859 73.2756 312.98 74.0469 312.98 74.9631V75.6023H305.412V74.2983H311.446C311.446 73.7443 311.336 73.25 311.114 72.8153C310.897 72.3807 310.586 72.0376 310.181 71.7862C309.78 71.5348 309.307 71.4091 308.762 71.4091C308.161 71.4091 307.641 71.5582 307.202 71.8565C306.767 72.1506 306.433 72.5341 306.199 73.0071C305.964 73.4801 305.847 73.9872 305.847 74.5284V75.3977C305.847 76.1392 305.975 76.7678 306.23 77.2834C306.49 77.7947 306.85 78.1847 307.311 78.4531C307.771 78.7173 308.306 78.8494 308.915 78.8494C309.311 78.8494 309.669 78.794 309.989 78.6832C310.313 78.5682 310.592 78.3977 310.826 78.1719C311.061 77.9418 311.242 77.6562 311.37 77.3153L312.827 77.7244C312.674 78.2188 312.416 78.6534 312.054 79.0284C311.691 79.3991 311.244 79.6889 310.711 79.8977C310.179 80.1023 309.58 80.2045 308.915 80.2045ZM315.275 80V70.1818H319.289C320.346 70.1818 321.186 70.4205 321.808 70.8977C322.43 71.375 322.741 72.0057 322.741 72.7898C322.741 73.3864 322.564 73.8487 322.211 74.1768C321.857 74.5007 321.403 74.7202 320.849 74.8352C321.211 74.8864 321.563 75.0142 321.904 75.2188C322.249 75.4233 322.534 75.7045 322.76 76.0625C322.986 76.4162 323.099 76.8509 323.099 77.3665C323.099 77.8693 322.971 78.3189 322.716 78.7152C322.46 79.1115 322.093 79.4247 321.616 79.6548C321.139 79.8849 320.568 80 319.903 80H315.275ZM316.707 78.6193H319.903C320.423 78.6193 320.83 78.4957 321.124 78.2486C321.418 78.0014 321.565 77.6648 321.565 77.2386C321.565 76.7315 321.418 76.3331 321.124 76.0433C320.83 75.7493 320.423 75.6023 319.903 75.6023H316.707V78.6193ZM316.707 74.2983H319.289C319.694 74.2983 320.042 74.2429 320.331 74.1321C320.621 74.017 320.843 73.8551 320.996 73.6463C321.154 73.4332 321.233 73.1818 321.233 72.892C321.233 72.4787 321.06 72.1548 320.715 71.9205C320.37 71.6818 319.895 71.5625 319.289 71.5625H316.707V74.2983ZM324.82 71.5881V70.1818H332.797V71.5881H329.576V80H328.067V71.5881H324.82Z" fill="black"/><path d="M87.273 31.3212C85.5682 22.9634 86.6555 5.45011 57.7022 0.833285C28.7551 -3.78989 2.67192 10.9007 9.22653 43.0028C9.22653 48.8557 -2.35405 57.9355 0.432933 61.0063C3.22309 64.0812 7.96141 64.1995 7.96141 64.1995C7.96141 64.1995 4.8836 70.0442 6.26366 71.6607C7.65725 73.2807 11.4994 72.5875 11.4994 72.5875C11.4994 72.5875 7.92776 75.1679 7.92776 77.1671C7.92776 79.1631 13.9682 81.8282 13.9682 81.8282C13.9682 81.8282 12.8591 92.9046 21.9302 92.1369C31.0083 91.3656 32.5266 88.8087 32.5266 88.8087L35.2189 100H70.3265L69.0965 75.6651C69.0965 75.6651 90.657 52.2601 87.273 31.3212ZM62.1685 51.1658C61.4757 52.3427 61.1472 62.0268 60.9353 63.3211C60.7232 64.6152 57.4649 64.8959 56.5312 62.6162C55.8287 60.8999 53.6888 51.2877 52.673 46.639C48.8889 45.9553 46.0066 42.4465 46.0066 38.2187C46.0066 37.5672 46.0773 36.9344 46.2064 36.325C45.9378 36.354 45.6654 36.3688 45.3898 36.3688C43.0571 36.3688 40.9576 35.306 39.4929 33.6106C38.2459 34.463 36.7641 34.9595 35.1724 34.9595C31.7002 34.9595 28.7445 32.606 27.6312 29.314C27.5886 29.3123 27.5467 29.3127 27.5042 29.3106C23.0836 29.0795 19.6995 25.0725 19.9456 20.3608C19.9755 19.7904 20.058 19.236 20.1863 18.7022C20.5449 14.5149 26.1724 9.88596 33.8772 7.78032C40.3444 6.0125 46.4541 6.52156 49.6936 8.75441C50.7822 8.1645 52.0126 7.83091 53.3167 7.83091C57.0049 7.83091 60.1092 10.4867 61.0431 14.1019C61.4531 14.0333 61.8728 13.9965 62.3008 13.9965C66.0062 13.9965 69.1225 16.677 70.0401 20.3178C74.2856 21.4382 77.5186 25.2907 78.0027 30.0254C79.8935 32.0618 81.0619 34.8624 81.0619 37.9537C81.0619 43.4284 77.4009 47.99 72.5468 49.0124L72.525 49.1451C72.5257 49.1449 62.8615 49.989 62.1685 51.1658Z" fill="black"/><path d="M60.6049 20.2535C60.4548 20.2382 60.2963 20.2287 60.1333 20.2287C58.4906 20.2287 56.854 20.9998 55.8354 22.2243C54.8161 20.9998 53.1801 20.2287 51.5384 20.2287C51.3755 20.2287 51.2182 20.2382 51.0654 20.2535C49.2152 20.452 47.9137 21.0775 47.0859 22.1633C46.2652 23.2407 45.9975 24.7007 46.2913 26.5037C46.7197 29.1186 50.107 32.3033 52.8275 34.8632L52.8897 34.9214C53.6475 35.6353 54.3021 36.2509 54.7284 36.7102C54.786 36.7747 55.3056 37.343 55.8744 37.343C56.4467 37.343 56.9547 36.7663 57.0007 36.7106C57.454 36.2195 58.1891 35.5229 58.9154 34.8365C61.6058 32.284 64.9544 29.1076 65.379 26.5026C65.674 24.701 65.4082 23.2417 64.5867 22.1635C63.7593 21.077 62.4576 20.4518 60.6049 20.2535Z" fill="black"/></svg>